# xmcd CD database file
#
# Track frame offsets:
#	150
#	15150
#	27322
#	42375
#	57150
#	73272
#	88297
#	100617
#	113325
#	123022
#	138689
#	154545
#	168937
#	183705
#
# Disc length: 2653 seconds
#
# Revision: 0
# Processed by: cddbd v1.5.2PL0 Copyright (c) Steve Scherf et al.
# Submitted via: CDex 1.78
#
DISCID=b00a5b0e
DTITLE=Marlene Dietrich - Falling In Love Again
DYEAR=2015
DGENRE=Jazz
TTITLE0=Falling In Love Again
TTITLE1=Ich bin die fesche Lola
TTITLE2=Quand l'amour meurt
TTITLE3=Give Me The Man
TTITLE4=Assez
TTITLE5=Je m'envie
TTITLE6=I've Been In Love Before
TTITLE7=You've Got That Look
TTITLE8=The Boys In The Backroom
TTITLE9=You Go To My Head
TTITLE10=Lili Marlene
TTITLE11=Symphonie
TTITLE12=Black Market
TTITLE13=Illusions
EXTD=YEAR: 2015
EXTT0=
EXTT1=
EXTT2=
EXTT3=
EXTT4=
EXTT5=
EXTT6=
EXTT7=
EXTT8=
EXTT9=
EXTT10=
EXTT11=
EXTT12=
EXTT13=
PLAYORDER=
